<?xml version="1.0" encoding="utf-8"?>
<!-- Generator: Adobe Illustrator 18.1.1, SVG Export Plug-In . SVG Version: 6.00 Build 0)  -->
<svg version="1.1" id="Layer_1" xmlns="http://www.w3.org/2000/svg" xmlns:xlink="http://www.w3.org/1999/xlink" x="0px" y="0px"
	 viewBox="0 0 576.1 72.8" enable-background="new 0 0 576.1 72.8" xml:space="preserve">
<g>
	<defs>
		<path id="SVGID_1_" d="M550.3,72.1h-17.4c-0.7,0-1.3-0.7-1.3-1.4V22.3c0-0.7,0.6-1.4,1.3-1.4h17.4c14.2,0,25.7,11.5,25.7,25.5
			C576.1,60.6,564.5,72.1,550.3,72.1L550.3,72.1z M549.4,29.7h-8.4v33.5h8.4c9.5,0,16.5-7.2,16.5-16.8
			C565.9,36.9,559,29.7,549.4,29.7L549.4,29.7z M523,72.1h-6.4c-1.1,0-1.6-0.4-2.1-1.5l-3.6-7.9h-21.9l-3.6,7.9
			c-0.3,0.7-1,1.5-2.1,1.5h-6.4c-1.1,0-1.7-1-1.2-1.9l22.8-49.3c0.2-0.4,0.6-0.8,1.2-0.8h0.7c0.7,0,1,0.4,1.2,0.8l22.6,49.3
			C524.6,71.2,524.1,72.1,523,72.1L523,72.1z M499.9,38.5h-0.2l-7.2,16.1h14.7L499.9,38.5L499.9,38.5z M469.6,72.1h-29.8
			c-0.8,0-1.4-0.7-1.4-1.4V22.3c0-0.7,0.6-1.4,1.4-1.4h29.8c0.8,0,1.4,0.7,1.4,1.4v6c0,0.7-0.6,1.4-1.4,1.4h-21.7v12h18.1
			c0.7,0,1.4,0.7,1.4,1.4v6.1c0,0.8-0.7,1.4-1.4,1.4h-18.1v12.8h21.7c0.8,0,1.4,0.7,1.4,1.4v6C471,71.5,470.5,72.1,469.6,72.1
			L469.6,72.1z M425.9,72.1h-6.7c-0.8,0-1.4-0.7-1.4-1.4V50.5h-23.9v20.2c0,0.7-0.6,1.4-1.4,1.4h-6.8c-0.7,0-1.4-0.7-1.4-1.4V22.3
			c0-0.7,0.7-1.4,1.4-1.4h6.8c0.8,0,1.4,0.7,1.4,1.4v19.4h23.9V22.3c0-0.7,0.6-1.4,1.4-1.4h6.7c0.7,0,1.4,0.7,1.4,1.4v48.5
			C427.3,71.5,426.6,72.1,425.9,72.1L425.9,72.1z M361.9,71.8c-0.1,0.6-0.7,1-1.3,1h-1.2c-0.7,0-1.1-0.4-1.2-0.8l-13.1-33.2h-0.4
			l-13,33.2c-0.2,0.4-0.5,0.8-1.2,0.8h-1.2c-0.6,0-1.2-0.4-1.3-1l-13.9-49.2c-0.3-1,0.3-1.8,1.3-1.8h6.7c0.6,0,1.2,0.5,1.3,1
			l7.6,29.2h0.3l11.7-30.2c0.1-0.4,0.5-0.8,1.2-0.8h1.3c0.7,0,1.1,0.4,1.2,0.8l11.7,30.2h0.3l7.5-29.2c0.1-0.5,0.7-1,1.3-1h6.7
			c1,0,1.6,0.7,1.3,1.8L361.9,71.8L361.9,71.8z M284.5,72.8c-14.7,0-26.3-11.6-26.3-26.3c0-14.6,11.7-26.4,26.3-26.4
			c14.7,0,26.4,11.8,26.4,26.4C310.9,61.2,299.1,72.8,284.5,72.8L284.5,72.8z M284.5,29.7c-9.2,0-16.8,7.7-16.8,16.9
			c0,9.2,7.6,16.8,16.8,16.8c9.2,0,16.9-7.5,16.9-16.8C301.3,37.3,293.7,29.7,284.5,29.7L284.5,29.7z M250.9,70c0.5,1,0,2.1-1.2,2.1
			H242c-0.7,0-1-0.4-1.2-0.7L231,52.1h-8.1v18.7c0,0.7-0.7,1.4-1.4,1.4h-6.7c-0.8,0-1.4-0.7-1.4-1.4V22.3c0-0.7,0.6-1.4,1.4-1.4h21
			c8.8,0,16,7,16,15.7c0,6.7-4.5,12.2-10.9,14.8L250.9,70L250.9,70z M242.2,36.8c0-3.9-3.4-7.1-7.3-7.1h-12v14.6h12
			C238.8,44.2,242.2,40.9,242.2,36.8L242.2,36.8z M202.1,70c0.5,1,0,2.1-1.2,2.1h-7.7c-0.7,0-1-0.4-1.2-0.7l-9.8-19.4H174v18.7
			c0,0.7-0.7,1.4-1.4,1.4h-6.7c-0.8,0-1.4-0.7-1.4-1.4V22.3c0-0.7,0.6-1.4,1.4-1.4h21c8.8,0,16,7,16,15.7c0,6.7-4.5,12.2-10.9,14.8
			L202.1,70L202.1,70z M193.3,36.8c0-3.9-3.4-7.1-7.3-7.1h-12v14.6h12C190,44.2,193.3,40.9,193.3,36.8L193.3,36.8z M156.6,72.1h-6.4
			c-1.1,0-1.6-0.4-2.1-1.5l-3.6-7.9h-21.9l-3.6,7.9c-0.3,0.7-1,1.5-2.1,1.5h-6.4c-1.1,0-1.7-1-1.2-1.9L132,20.9
			c0.2-0.4,0.6-0.8,1.2-0.8h0.7c0.7,0,1,0.4,1.2,0.8l22.6,49.3C158.3,71.2,157.7,72.1,156.6,72.1L156.6,72.1z M133.6,38.5h-0.2
			l-7.2,16.1h14.7L133.6,38.5L133.6,38.5z M91.4,46.5l2.4-3.8l10-0.1l0.1-1.9l-7.7-6.8l0.3-4.2c0,0,6.8,4.5,12.5,12.6
			c0,0-0.2,1.9-0.2,1.9C99.3,47.3,91.4,46.5,91.4,46.5L91.4,46.5z M93.6,40.6l-18.4-5.3l0.9-4.6l18.7,5.8l5.1,3.8L93.6,40.6
			L93.6,40.6z M55.2,54.5c-11.3,0-18.6-12.8-19.9-26.7C35.1,13.4,43.9,4.2,54.5,4.1c10.1,0.1,19.3,8.9,19,23.8
			C72.6,40.8,67.2,54.5,55.2,54.5L55.2,54.5z M4.7,12c0,0-1.4-1.6-1.1-2.5c0.2-0.8,2.2-1.3,2.2-1.3l28.3,9l-1.1,4L4.7,12L4.7,12z
			 M6.8,0l14.6,6.9l2.5,4.8l-14.3-5L6.8,0L6.8,0z M21.2,19.8l-5.2,2L0,18.6l6.7-3.4L21.2,19.8L21.2,19.8z M41.3,53.9
			c0,0,4.9,5.2,14.1,5.2c9.3,0,13.5-5.4,13.5-5.4s17.4,5.1,22,9.1c1.6,2.6,3.9,9.8,3.9,9.8H15.4c0,0,1.6-7.1,3.6-10
			C22.2,60,41.3,53.9,41.3,53.9L41.3,53.9z"/>
	</defs>
	<use xlink:href="#SVGID_1_"  overflow="visible" fill-rule="evenodd" clip-rule="evenodd" fill="#FFFFFF"/>
	<clipPath id="SVGID_2_">
		<use xlink:href="#SVGID_1_"  overflow="visible"/>
	</clipPath>
</g>
</svg>
